<?xml version="1.0" standalone="no"?>
<!DOCTYPE svg PUBLIC "-//W3C//DTD SVG 20010904//EN"
 "http://www.w3.org/TR/2001/REC-SVG-20010904/DTD/svg10.dtd">
<svg version="1.0" xmlns="http://www.w3.org/2000/svg"
 width="640.000000pt" height="640.000000pt" viewBox="0 0 640.000000 640.000000"
 preserveAspectRatio="xMidYMid meet">
<metadata>
Created by potrace 1.14, written by Peter Selinger 2001-2017
</metadata>
<g transform="translate(0.000000,640.000000) scale(0.100000,-0.100000)"
fill="#000000" stroke="none">
<path d="M787 3792 c-13 -3 -17 -15 -17 -53 0 -32 4 -49 13 -50 6 -1 35 -2 62
-3 l50 -1 3 -188 2 -187 60 0 60 0 0 188 0 187 53 -1 c28 0 57 1 63 3 6 2 12
26 13 54 1 44 -2 49 -22 50 -61 3 -326 4 -340 1z"/>
<path d="M2389 3786 c-123 -32 -190 -126 -183 -258 6 -131 101 -221 234 -221
124 -1 216 76 239 198 7 38 6 47 -8 53 -12 6 -200 8 -268 3 -9 -1 -13 -18 -13
-51 0 -56 -7 -52 98 -52 50 0 54 -10 10 -31 -60 -29 -133 -3 -162 57 -31 66
-5 152 54 184 54 28 140 -1 160 -54 7 -19 16 -21 69 -21 69 1 72 5 42 70 -24
52 -54 81 -111 106 -60 26 -106 31 -161 17z"/>
<path d="M2805 3792 c-27 -2 -52 -7 -55 -12 -3 -4 -5 -111 -4 -237 l0 -228 59
0 59 0 -1 78 c-2 54 1 77 10 77 7 -1 34 -37 60 -80 l48 -80 64 0 c36 0 65 3
65 7 0 4 -23 42 -52 86 l-51 78 25 22 c90 76 81 217 -17 270 -24 13 -140 23
-210 19z m159 -128 c19 -18 21 -55 4 -72 -7 -7 -33 -12 -59 -12 l-47 0 1 50 1
50 42 0 c25 0 49 -6 58 -16z"/>
<path d="M3246 3792 l-86 -3 0 -239 0 -240 158 0 159 0 1 58 1 57 -100 -1 -99
-1 0 38 0 39 95 0 c102 0 97 -3 97 55 0 64 6 60 -97 57 l-95 -3 0 35 0 36 90
-1 c49 0 93 2 98 5 4 2 9 27 9 55 l2 49 -74 4 c-41 2 -112 2 -159 0z"/>
<path d="M3723 3792 c-17 -2 -30 -25 -63 -110 -24 -59 -66 -167 -96 -239 l-53
-133 64 0 64 0 12 35 13 35 82 0 82 0 12 -35 12 -35 64 0 c35 0 64 4 64 8 0 8
-59 155 -147 365 -25 59 -48 107 -51 108 -4 0 -14 2 -22 3 -8 1 -25 0 -37 -2z
m57 -289 c0 -8 -14 -13 -35 -13 -19 0 -35 1 -35 3 0 2 8 26 17 53 l17 49 18
-40 c9 -22 18 -46 18 -52z"/>
<path d="M4016 3788 c-6 -4 -11 -19 -10 -35 1 -15 3 -38 3 -49 1 -19 6 -21 57
-20 30 1 59 -3 63 -9 4 -5 8 -86 7 -178 -1 -93 2 -173 5 -179 3 -5 30 -8 59
-6 l53 3 2 180 c1 99 3 182 4 185 0 3 26 5 57 4 59 0 62 2 68 53 6 55 3 56
-184 57 -94 1 -177 -2 -184 -6z"/>
<path d="M4490 3790 l-45 -5 1 -235 0 -235 156 -3 c155 -2 156 -2 160 20 2 13
1 38 -2 57 l-5 34 -95 1 -94 1 -1 38 -1 37 97 0 97 0 0 55 -1 55 -56 1 c-142
3 -136 1 -136 34 l0 30 75 2 c41 1 86 2 100 2 24 1 25 3 22 55 l-4 55 -111 3
c-62 2 -132 1 -157 -2z"/>
<path d="M4965 3789 c-91 -20 -137 -70 -138 -149 -1 -80 50 -130 148 -144 22
-3 49 -8 60 -10 11 -3 23 -5 28 -5 4 -1 7 -9 7 -19 0 -57 -113 -58 -132 -1 -4
12 -104 17 -115 5 -14 -14 19 -86 53 -115 82 -67 202 -60 275 15 31 32 34 40
34 94 0 51 -4 63 -30 90 -28 29 -74 47 -145 57 -66 9 -87 39 -47 68 27 19 97
5 97 -21 0 -8 8 -14 18 -15 97 -5 97 -5 100 21 3 30 -28 83 -61 105 -31 20
-113 33 -152 24z"/>
<path d="M5275 3790 c-28 -5 -30 -8 -31 -52 0 -28 4 -49 10 -50 6 -1 31 -2 56
-3 25 -1 50 -3 55 -4 6 -1 10 -69 9 -186 l-1 -185 58 0 59 0 2 187 3 188 63
-1 62 0 0 53 c0 35 -4 53 -12 54 -56 4 -309 3 -333 -1z"/>
<path d="M1210 3550 l0 -240 61 0 60 0 -2 85 c-1 47 1 89 5 92 4 4 36 7 71 8
l65 1 -1 -51 c-1 -27 -1 -69 0 -93 l1 -43 57 3 58 3 1 225 c0 124 -2 231 -4
238 -3 7 -24 12 -58 12 l-54 0 -1 -32 c-1 -18 -1 -58 0 -89 l1 -57 -42 -3
c-24 -2 -55 -3 -70 -1 l-28 3 0 90 0 89 -60 0 -60 0 0 -240z"/>
<path d="M1660 3550 l0 -241 157 3 157 3 1 53 c0 29 -4 52 -10 53 -5 1 -48 1
-95 1 -47 0 -88 4 -91 9 -3 5 -4 23 -1 39 l4 30 94 0 94 0 0 55 0 55 -62 1
c-35 1 -78 1 -95 1 -18 0 -33 4 -34 9 -7 56 -11 54 96 59 l100 5 0 53 1 52
-158 0 -158 0 0 -240z"/>
<path d="M2752 3095 c-4 -5 -7 -115 -7 -242 l-1 -233 158 0 158 0 0 55 0 55
-47 1 c-27 0 -70 1 -98 2 l-50 2 -3 38 -3 37 98 0 99 0 -1 52 c0 61 -6 64
-122 62 l-73 0 0 33 0 33 100 0 100 0 0 55 c0 50 -2 55 -22 56 -188 4 -281 2
-286 -6z"/>
<path d="M3256 3098 c-80 -17 -123 -62 -132 -138 -10 -85 46 -139 161 -155 59
-8 85 -20 85 -40 0 -40 -108 -47 -125 -7 -5 12 -17 23 -25 23 -17 2 -81 1 -92
0 -13 -2 -9 -41 8 -73 72 -140 322 -112 350 38 9 49 -3 84 -41 120 -31 29 -52
37 -140 51 -81 13 -89 63 -11 77 21 4 34 -1 54 -21 22 -22 36 -27 80 -27 l54
-1 -5 32 c-15 89 -116 145 -221 121z"/>
<path d="M3545 3100 c-1 -3 -2 -27 -1 -55 l1 -50 50 -1 c28 -1 56 -2 63 -3 9
-1 12 -45 12 -186 l0 -185 60 0 60 0 0 185 c0 116 4 185 10 186 6 1 34 2 63 2
l52 2 0 55 0 54 -183 1 c-101 0 -185 -2 -187 -5z"/>
<path d="M4168 3096 c-118 -31 -190 -132 -182 -254 8 -130 108 -224 239 -225
110 -1 197 58 235 160 68 183 -102 369 -292 319z m143 -132 c26 -23 49 -74 49
-109 0 -40 -36 -101 -67 -114 -100 -41 -193 12 -193 111 0 65 23 103 80 130
27 13 109 2 131 -18z"/>
<path d="M4583 3102 c-18 -2 -33 -9 -34 -15 -1 -7 -2 -114 -3 -240 l-1 -227
58 0 c64 0 59 -8 59 98 0 40 4 62 11 62 7 0 34 -36 60 -80 l49 -80 58 0 c32 0
61 4 64 8 3 5 -18 43 -46 86 l-52 77 26 22 c37 31 56 66 62 111 9 76 -47 159
-117 171 -41 7 -153 11 -194 7z m181 -128 c19 -18 20 -38 6 -65 -8 -15 -21
-19 -59 -19 l-49 0 0 50 -1 50 44 0 c26 0 50 -6 59 -16z"/>
<path d="M1502 3048 l3 -53 35 0 35 0 3 -136 3 -136 -40 2 -40 2 0 -54 1 -53
137 0 137 0 2 53 1 54 -40 -2 c-22 -1 -39 3 -40 9 0 13 0 224 1 247 0 11 8 15
26 13 44 -4 51 4 51 57 l0 49 -139 0 -139 0 3 -52z"/>
<path d="M1840 3055 c0 -25 -1 -115 -1 -200 0 -85 1 -173 1 -195 l0 -40 58 0
58 0 -1 110 c0 61 2 110 5 110 3 0 39 -49 80 -110 l75 -109 48 -1 47 0 0 240
0 240 -58 0 -57 0 0 -107 c1 -60 -1 -112 -3 -116 -2 -5 -40 44 -84 107 l-79
116 -45 0 -44 0 0 -45z"/>
<path d="M2258 3088 c-3 -7 1 -24 8 -38 7 -14 42 -101 79 -195 100 -254 89
-235 139 -235 l42 0 92 233 c51 127 92 235 92 240 0 4 -26 7 -59 7 l-58 0 -46
-112 c-25 -62 -49 -125 -52 -140 -7 -28 -25 -30 -25 -3 0 8 -21 68 -47 134
l-47 121 -57 0 c-36 0 -59 -5 -61 -12z"/>
</g>
</svg>
